<?xml version="1.0" encoding="utf-8"?>
<!-- Generator: Adobe Illustrator 22.1.0, SVG Export Plug-In . SVG Version: 6.00 Build 0)  -->
<svg version="1.1" id="图层_1" xmlns="http://www.w3.org/2000/svg" xmlns:xlink="http://www.w3.org/1999/xlink" x="0px" y="0px"
	 viewBox="0 0 200 200" style="enable-background:new 0 0 200 200;" xml:space="preserve">
<style type="text/css">
	.st0{fill:url(#SVGID_1_);}
	.st1{fill:#46B0AF;}
</style>
<linearGradient id="SVGID_1_" gradientUnits="userSpaceOnUse" x1="79.3379" y1="64.0013" x2="120.7567" y2="135.7409" gradientTransform="matrix(1 0 0 -1 0 200)">
	<stop  offset="0" style="stop-color:#C8E0DC"/>
	<stop  offset="7.312769e-02" style="stop-color:#B0D3CD"/>
	<stop  offset="0.2483" style="stop-color:#7BB7AC"/>
	<stop  offset="0.4201" style="stop-color:#4F9F91"/>
	<stop  offset="0.5846" style="stop-color:#2C8D7C"/>
	<stop  offset="0.7399" style="stop-color:#14806C"/>
	<stop  offset="0.8823" style="stop-color:#057863"/>
	<stop  offset="1" style="stop-color:#007560"/>
</linearGradient>
<path class="st0" d="M160.1,134.1l-125.6-24c-0.8-0.3-1.3-1.5-1.3-2.4l3.7-39.4c0-1.1,0.9-2,2.1-2c0.2,0,0.5,0,0.7,0L165.1,90
	c0.8,0.3,1.4,1,1.4,1.9l-3.5,40.4c0,0.5-0.2,1-0.6,1.4c-0.4,0.4-0.9,0.6-1.5,0.6C160.7,134.3,160.4,134.2,160.1,134.1z"/>
<path class="st1" d="M35.9,110.1c-0.3,0.1-0.5,0.1-0.8,0.1c-0.6,0-1.1-0.3-1.5-0.7c-0.4-0.4-0.5-1-0.5-1.5l3.8-41
	c0.1-0.9,0.7-1.6,1.6-1.8l156.7-42.8c0.2,0,0.5,0,0.7,0.1c1.2,0.1,2.1,1.1,2,2.2l-3.7,40.8c-0.1,0.8-0.7,1.6-1.5,1.8L35.9,110.1z"/>
<path class="st1" d="M4.6,177.3c-0.3,0.1-0.5,0.1-0.8,0.1c-0.6,0-1.1-0.3-1.5-0.7s-0.5-1-0.5-1.5l3.7-40.9c0.1-0.9,0.7-1.6,1.6-1.8
	l156.7-42.8c0.2,0,0.5,0,0.7,0.1c1.2,0.1,2.1,1.1,2,2.2l-3.7,40.8c-0.1,0.8-0.7,1.6-1.5,1.8L4.6,177.3z"/>
</svg>
